<?xml version="1.0" encoding="utf-8"?><svg width="189" height="157" viewBox="0 0 189 157" xmlns="http://www.w3.org/2000/svg" xmlns:xlink="http://www.w3.org/1999/xlink"><svg width="24" height="24" fill="none" viewBox="0 0 24 24" id="account" x="84" y="105" xmlns="http://www.w3.org/2000/svg"><path fill-rule="evenodd" clip-rule="evenodd" d="M13.768 5.732a2.5 2.5 0 10-3.536 3.536 2.5 2.5 0 003.536-3.536zm3.702 11.624c-1.296-.648-3.227-1.106-5.47-1.106s-4.174.459-5.47 1.107C5.115 18.064 5 18.672 5 18.75c0 .138.112.25.25.25h13.5a.25.25 0 00.25-.25c0-.078-.115-.686-1.53-1.393zM15.182 4.319a4.5 4.5 0 10-6.364 6.364 4.5 4.5 0 006.364-6.364zM21 18.75c0-2.486-4.027-4.5-9-4.5s-9 2.014-9 4.5A2.25 2.25 0 005.25 21h13.5A2.25 2.25 0 0021 18.75z" fill="#1A1A1A"/></svg><svg viewBox="0 0 24 24" width="24" height="24" id="arrow_bold" x="108" y="105" xmlns="http://www.w3.org/2000/svg"><path d="M9.93 16.757a1 1 0 001.414 0l4.657-4.657-4.657-4.656A1 1 0 009.93 8.858l3.243 3.242-3.243 3.243a1 1 0 000 1.414z" clip-rule="evenodd" fill-rule="evenodd"/></svg><svg width="28" height="28" fill="none" viewBox="0 0 28 28" id="assembly" x="28" y="20" xmlns="http://www.w3.org/2000/svg"><path fill-rule="evenodd" clip-rule="evenodd" d="M3.667 7.833a3 3 0 013-3H17.5a1 1 0 011 1v9.334a1 1 0 01-1 1H6.667a3 3 0 01-3-3V7.833zm3-1a1 1 0 00-1 1v5.334a1 1 0 001 1H16.5V6.833H6.667z" fill="#1A1A1A"/><path fill-rule="evenodd" clip-rule="evenodd" d="M16.885 6.212a1 1 0 01.858-.182l4.667 1.166a1 1 0 01.757.97V9.5h3.084a1 1 0 010 2h-3.084v1.333a1 1 0 01-.757.97l-4.667 1.167a1 1 0 01-1.242-.97V7a1 1 0 01.384-.788zm1.616 2.069v4.438l2.666-.667V8.947l-2.666-.666zM6.008 15.043a1 1 0 01.993-.877h4.666a1 1 0 01.993 1.124l-1.167 9.334a1 1 0 01-.992.876H5.834a1 1 0 01-.992-1.124l1.166-9.334zm1.875 1.123L6.967 23.5h2.65l.917-7.334h-2.65z" fill="#1A1A1A"/><path fill-rule="evenodd" clip-rule="evenodd" d="M7.167 24.5a1 1 0 011-1h4.667a1 1 0 110 2H8.167a1 1 0 01-1-1z" fill="#1A1A1A"/></svg><svg width="28" height="28" fill="none" viewBox="0 0 28 28" id="bedroom" x="56" y="20" xmlns="http://www.w3.org/2000/svg"><path fill-rule="evenodd" clip-rule="evenodd" d="M23 6H5v8h18V6zM5 4a2 2 0 00-2 2v10h22V6a2 2 0 00-2-2H5z" fill="#1A1A1A"/><path d="M5 21a1 1 0 112 0v3a1 1 0 11-2 0v-3zM21 21a1 1 0 112 0v3a1 1 0 11-2 0v-3z" fill="#1A1A1A"/><path fill-rule="evenodd" clip-rule="evenodd" d="M13 13a1 1 0 00-1-1H8a1 1 0 00-1 1v1h6v-1zM21 13a1 1 0 00-1-1h-4a1 1 0 00-1 1v1h6v-1zM3 16v4h22v-4H3zm-1-2a1 1 0 00-1 1v6a1 1 0 001 1h24a1 1 0 001-1v-6a1 1 0 00-1-1H2z" fill="#1A1A1A"/></svg><svg width="24" height="24" fill="none" viewBox="0 0 24 24" id="best-price" x="141" xmlns="http://www.w3.org/2000/svg"><path fill-rule="evenodd" clip-rule="evenodd" d="M2.452 11.366a4 4 0 000 5.656l4.525 4.526a4 4 0 005.657 0l8.81-8.81a2 2 0 00.585-1.491l-.273-7.082a2 2 0 00-1.921-1.922l-7.082-.272a2 2 0 00-1.491.584l-8.81 8.81zm14.95-3.2a1.8 1.8 0 100-3.6 1.8 1.8 0 000 3.6z" fill="#512B58"/></svg><svg width="28" height="28" fill="none" viewBox="0 0 28 28" id="calendar" y="49" xmlns="http://www.w3.org/2000/svg"><path fill-rule="evenodd" clip-rule="evenodd" d="M3 6a1 1 0 011-1h20a1 1 0 011 1v18a1 1 0 01-1 1H4a1 1 0 01-1-1V6zm2 1v16h18V7H5z" fill="#1A1A1A"/><path fill-rule="evenodd" clip-rule="evenodd" d="M24 11H5V9h19v2zM16.293 14.293a1 1 0 011.414 1.414L13.5 19.914l-3.207-3.207a1 1 0 111.414-1.414l1.793 1.793 2.793-2.793zM8 2a1 1 0 011 1v2a1 1 0 01-2 0V3a1 1 0 011-1zM20 2a1 1 0 011 1v2a1 1 0 11-2 0V3a1 1 0 011-1z" fill="#1A1A1A"/></svg><svg width="24" height="24" fill="none" viewBox="0 0 24 24" id="cart_empty" x="141" y="24" xmlns="http://www.w3.org/2000/svg"><path fill-rule="evenodd" clip-rule="evenodd" d="M0 2a1 1 0 011-1h3.5a1 1 0 01.966.74l.85 3.16H22a1 1 0 01.972 1.236l-1.84 7.572A3 3 0 0118.217 16H9.226A3 3 0 016.3 13.669L4.58 6.142 3.734 3H1a1 1 0 01-1-1zm6.805 4.9l1.446 6.323a1 1 0 00.975.777h8.991a1 1 0 00.972-.764L20.728 6.9H6.805z" fill="#1A1A1A"/><path d="M10 21.5a1.5 1.5 0 11-3 0 1.5 1.5 0 013 0zM20 21.5a1.5 1.5 0 11-3 0 1.5 1.5 0 013 0z" fill="#1A1A1A"/><path fill-rule="evenodd" clip-rule="evenodd" d="M8.555 14.168a1 1 0 01.277 1.387L7.87 17H20a1 1 0 110 2H7.869c-1.598 0-2.55-1.78-1.665-3.11l.964-1.445a1 1 0 011.387-.277z" fill="#1A1A1A"/></svg><svg width="24" height="24" fill="none" viewBox="0 0 24 24" id="cart_filled" x="141" y="48" xmlns="http://www.w3.org/2000/svg"><path fill-rule="evenodd" clip-rule="evenodd" d="M0 2a1 1 0 011-1h3.5a1 1 0 01.966.74l.85 3.16H22a1 1 0 01.972 1.236l-1.84 7.572A3 3 0 0118.217 16H9.226A3 3 0 016.3 13.669L4.58 6.142 3.734 3H1a1 1 0 01-1-1zm6.805 4.9l1.446 6.323a1 1 0 00.975.777h8.991a1 1 0 00.972-.764L20.728 6.9H6.805z" fill="#1A1A1A"/><path d="M18.217 15H9.226a2 2 0 01-1.95-1.554L5.55 5.9H22l-1.84 7.572A2 2 0 0118.218 15zM10 21.5a1.5 1.5 0 11-3 0 1.5 1.5 0 013 0zM20 21.5a1.5 1.5 0 11-3 0 1.5 1.5 0 013 0z" fill="#1A1A1A"/><path fill-rule="evenodd" clip-rule="evenodd" d="M8.555 14.168a1 1 0 01.277 1.387L7.87 17H20a1 1 0 110 2H7.869c-1.598 0-2.55-1.78-1.665-3.11l.964-1.445a1 1 0 011.387-.277z" fill="#1A1A1A"/></svg><svg viewBox="0 0 28 29" width="28" height="29" id="cart_full" y="20" xmlns="http://www.w3.org/2000/svg"><style>.aist0{fill:#1a1a1a}.aist1{fill:#ee2a74}</style><path class="aist0" d="M11.2 9.9H6.3l-.8-3.2c-.2-.4-.5-.7-1-.7H1c-.6 0-1 .4-1 1s.4 1 1 1h2.7l.8 3.1 1.7 7.5c.4 1.4 1.6 2.4 3 2.4h9c1.4 0 2.6-.9 2.9-2.3l.4-1.8c-.4.1-1 .1-1.5.1h-.5l-.3 1.3c-.1.4-.5.8-1 .8h-9c-.5 0-.9-.3-1-.8L6.8 12h5.1c-.3-.7-.5-1.4-.7-2.1zm10.6 5.9l1.1-4.7c.1-.3 0-.6-.2-.9-.1-.2-.4-.3-.7-.3h-9.8c.2.7.4 1.4.8 2h7.7l-1 4.1h.3c.6 0 1.3-.1 1.8-.2z"/><path class="aist1" d="M28 8.2c0 4.4-3.6 8-8 8s-8-3.6-8-8 3.6-8 8-8 8 3.6 8 8z"/><path class="aist0" d="M10 26.5c0 .8-.7 1.5-1.5 1.5S7 27.3 7 26.5 7.7 25 8.5 25s1.5.7 1.5 1.5zM20 26.5c0 .8-.7 1.5-1.5 1.5s-1.5-.7-1.5-1.5.7-1.5 1.5-1.5 1.5.7 1.5 1.5zM8.6 19.2c.5.3.6.9.3 1.4l-1 1.4H20c.6 0 1 .4 1 1s-.4 1-1 1H7.9c-1.6 0-2.6-1.8-1.7-3.1l1-1.4c.3-.5.9-.6 1.4-.3z"/></svg><svg width="28" height="28" fill="none" viewBox="0 0 28 28" id="child" x="28" y="49" xmlns="http://www.w3.org/2000/svg"><path fill-rule="evenodd" clip-rule="evenodd" d="M4.63 15.984a.5.5 0 10-.259-.966.5.5 0 00.259.966zm.518 1.931a2.5 2.5 0 10-1.294-4.83 2.5 2.5 0 001.294 4.83zM23.63 15.984a.5.5 0 10-.259-.966.5.5 0 00.259.966zm.518 1.931a2.5 2.5 0 10-1.294-4.83 2.5 2.5 0 001.294 4.83z" fill="#1A1A1A"/><path d="M25 14c0 6.075-4.925 11-11 11S3 20.075 3 14 7.925 3 14 3s11 4.925 11 11z" fill="#fff"/><path fill-rule="evenodd" clip-rule="evenodd" d="M14 23a9 9 0 100-18 9 9 0 000 18zm0 2c6.075 0 11-4.925 11-11S20.075 3 14 3 3 7.925 3 14s4.925 11 11 11z" fill="#1A1A1A"/><path fill-rule="evenodd" clip-rule="evenodd" d="M18.585 18.093a1 1 0 01-.175 1.403 7.183 7.183 0 01-8.746.057 1 1 0 011.207-1.595 5.183 5.183 0 006.31-.04 1 1 0 011.404.175z" fill="#1A1A1A"/><path d="M20 14.5a1.5 1.5 0 11-3 0 1.5 1.5 0 013 0zM11 14.5a1.5 1.5 0 11-3 0 1.5 1.5 0 013 0z" fill="#1A1A1A"/><path d="M7.004 11.583c-6.952 0-4.633-6.955-4.633-6.955S4.305 6.5 6.5 6.5c.996 0 3.5-3 8.5-3 9.265 0 9 8.5 9 8.5l-4-3s-6.044 2.583-12.996 2.583z" fill="#fff"/><path fill-rule="evenodd" clip-rule="evenodd" d="M8.77 4.122C10.244 3.318 12.285 2.5 15 2.5c2.474 0 4.384.57 5.844 1.48 1.458.909 2.407 2.12 3.02 3.313.61 1.186.89 2.36 1.021 3.23a10.526 10.526 0 01.116 1.376v.09l-.001.027V12.03L24 12l1 .031-.06 1.924-5.091-3.819c-.157.06-.346.13-.564.209-.697.25-1.695.58-2.914.912-2.433.66-5.774 1.326-9.367 1.326-1.903 0-3.317-.478-4.308-1.327-.988-.848-1.431-1.96-1.602-2.986-.169-1.018-.081-2.008.037-2.72a9.947 9.947 0 01.28-1.204l.008-.022.002-.008.001-.002v-.001l.95.315-.95-.315.503-1.508 1.14 1.103.01.01.05.046c.048.041.12.104.214.181.19.155.465.362.799.568.673.416 1.494.77 2.306.786a1.04 1.04 0 00.075-.032c.118-.056.276-.147.499-.285l.312-.197c.39-.247.881-.558 1.44-.863zM3.036 6.383c-.049.486-.057 1.03.031 1.559.119.712.4 1.34.931 1.796.53.454 1.433.845 3.006.845 3.36 0 6.516-.625 8.843-1.256a36.82 36.82 0 002.762-.865 25.55 25.55 0 00.94-.358l.047-.019.01-.004h.001l.531-.227 2.546 1.91a8.092 8.092 0 00-.6-1.557c-.478-.932-1.2-1.846-2.298-2.53C18.69 4.993 17.158 4.5 15 4.5c-2.285 0-3.996.682-5.273 1.378-.495.27-.91.533-1.293.775l-.361.228c-.23.143-.47.286-.7.394-.212.1-.523.225-.873.225-1.365 0-2.586-.574-3.413-1.085a10.38 10.38 0 01-.05-.032z" fill="#1A1A1A"/></svg><svg width="24" height="24" fill="none" viewBox="0 0 24 24" id="close" x="141" y="72" xmlns="http://www.w3.org/2000/svg"><path d="M15.535 7.05a1 1 0 011.415 1.415L8.464 16.95a1 1 0 11-1.414-1.414l8.485-8.486z" fill="#1A1A1A"/><path d="M16.95 15.536a1 1 0 11-1.415 1.414L7.05 8.465A1 1 0 118.464 7.05l8.486 8.486z" fill="#1A1A1A"/></svg><svg width="24" height="24" fill="none" viewBox="0 0 24 24" id="close-big" x="141" y="96" xmlns="http://www.w3.org/2000/svg"><path d="M18.364 16.95a1 1 0 01-1.414 1.414L5.636 7.05A1 1 0 017.05 5.636L18.364 16.95z" fill="#1A1A1A"/><path d="M7.05 18.364a1 1 0 11-1.414-1.414L16.95 5.636a1 1 0 111.414 1.414L7.05 18.364z" fill="#1A1A1A"/></svg><svg width="28" height="28" fill="none" viewBox="0 0 28 28" id="closet" x="56" y="49" xmlns="http://www.w3.org/2000/svg"><path d="M6 23a1 1 0 112 0v2a1 1 0 11-2 0v-2zM20 23a1 1 0 112 0v2a1 1 0 11-2 0v-2z" fill="#1A1A1A"/><path fill-rule="evenodd" clip-rule="evenodd" d="M23 5H5v17h18V5zM5 3a2 2 0 00-2 2v17a2 2 0 002 2h18a2 2 0 002-2V5a2 2 0 00-2-2H5z" fill="#1A1A1A"/><path d="M13 5h2v19h-2V5zM17 13h1a1 1 0 011 1v3a1 1 0 01-1 1h-1v-5zM11 13h-1a1 1 0 00-1 1v3a1 1 0 001 1h1v-5z" fill="#1A1A1A"/></svg><svg width="28" height="28" fill="none" viewBox="0 0 28 28" id="delivery" x="85" xmlns="http://www.w3.org/2000/svg"><path fill-rule="evenodd" clip-rule="evenodd" d="M2 5a1 1 0 011-1h14a1 1 0 011 1v14a1 1 0 01-1 1H3a1 1 0 01-1-1V5zm2 1v12h12V6H4z" fill="#1A1A1A"/><path fill-rule="evenodd" clip-rule="evenodd" d="M16 9a1 1 0 011-1h4a5 5 0 015 5v5a1 1 0 01-1 1h-8a1 1 0 01-1-1V9zm2 1v7h6v-4a3 3 0 00-3-3h-3z" fill="#1A1A1A"/><path d="M13 20a4 4 0 11-8 0 4 4 0 018 0z" fill="#fff"/><path fill-rule="evenodd" clip-rule="evenodd" d="M9 22a2 2 0 100-4 2 2 0 000 4zm0 2a4 4 0 100-8 4 4 0 000 8z" fill="#1A1A1A"/><path d="M24 20a4 4 0 11-8 0 4 4 0 018 0z" fill="#fff"/><path fill-rule="evenodd" clip-rule="evenodd" d="M20 22a2 2 0 100-4 2 2 0 000 4zm0 2a4 4 0 100-8 4 4 0 000 8zM20 13a1 1 0 011-1h3.5a1 1 0 110 2H21a1 1 0 01-1-1z" fill="#1A1A1A"/></svg><svg width="24" height="24" fill="none" viewBox="0 0 24 24" id="filter" y="133" xmlns="http://www.w3.org/2000/svg"><path fill-rule="evenodd" clip-rule="evenodd" d="M11 10.333v7.43l2 1v-8.43L17 5H7l4 5.333zM4.2 4.6L9 11v7.382a1 1 0 00.553.894l4 2A1 1 0 0015 20.382V11l4.8-6.4A1 1 0 0019 3H5a1 1 0 00-.8 1.6z" fill="#1A1A1A"/></svg><svg width="24" height="24" fill="none" viewBox="0 0 24 24" id="gift" x="24" y="133" xmlns="http://www.w3.org/2000/svg"><path d="M2.4 7a1 1 0 011-1h17.2a1 1 0 011 1v3.8H2.4V7zM3.6 12h16.8v8.6a1 1 0 01-1 1H4.6a1 1 0 01-1-1V12z" fill="#512B58"/><path d="M11.399 6.599a4.669 4.669 0 01-1.009.143c-.832.024-1.855-.178-2.761-1.085a2 2 0 112.828-2.829c.907.907 1.11 1.93 1.085 2.762a4.669 4.669 0 01-.143 1.009zM12.515 6.599c.256.065.607.13 1.008.143.833.024 1.856-.178 2.762-1.085a2 2 0 10-2.828-2.829c-.907.907-1.11 1.93-1.085 2.762.012.402.078.753.143 1.009z" stroke="#512B58" stroke-width="2"/></svg><svg width="28" height="28" fill="none" viewBox="0 0 28 28" id="guarantees" x="85" y="28" xmlns="http://www.w3.org/2000/svg"><path fill-rule="evenodd" clip-rule="evenodd" d="M14 3.867L12.135 5.56a3 3 0 01-2.132.776l-2.516-.097-.341 2.495a3 3 0 01-1.135 1.965l-1.99 1.542 1.343 2.131a3 3 0 01.394 2.234l-.533 2.461 2.398.77a3 3 0 011.738 1.458l1.173 2.228 2.332-.952a3 3 0 012.268 0l2.332.952 1.174-2.228a3 3 0 011.737-1.459l2.398-.769-.533-2.46a3 3 0 01.394-2.235l1.343-2.13-1.99-1.543a3 3 0 01-1.135-1.965l-.34-2.495-2.517.097a3 3 0 01-2.132-.776L14 3.867zm.672-2.09a1 1 0 00-1.344 0l-2.537 2.301a1 1 0 01-.71.259l-3.424-.133a1 1 0 00-1.029.864l-.464 3.394a1 1 0 01-.378.655l-2.707 2.099a1 1 0 00-.234 1.323l1.827 2.898a1 1 0 01.13.745l-.724 3.348a1 1 0 00.672 1.164l3.262 1.046a1 1 0 01.58.486l1.596 3.03a1 1 0 001.263.46l3.17-1.295a1 1 0 01.757 0l3.171 1.295a1 1 0 001.263-.46l1.597-3.03a1 1 0 01.58-.486l3.261-1.046a1 1 0 00.672-1.164l-.725-3.348a1 1 0 01.131-.745l1.827-2.898a1 1 0 00-.234-1.323l-2.707-2.1a1 1 0 01-.378-.654l-.464-3.394a1 1 0 00-1.03-.864l-3.422.133a1 1 0 01-.711-.259l-2.537-2.302z" fill="#1A1A1A"/><path fill-rule="evenodd" clip-rule="evenodd" d="M16.293 11.793a1 1 0 011.414 1.414L13.5 17.414l-3.207-3.207a1 1 0 111.414-1.414l1.793 1.793 2.793-2.793z" fill="#1A1A1A"/></svg><svg width="28" height="28" fill="none" viewBox="0 0 28 28" id="hall" y="77" xmlns="http://www.w3.org/2000/svg"><path d="M21 13a1 1 0 112 0v3a1 1 0 11-2 0v-3zM17 8h8v2h-8V8zM17 19h8v2h-8v-2z" fill="#1A1A1A"/><path fill-rule="evenodd" clip-rule="evenodd" d="M3 3a2 2 0 00-2 2v18a2 2 0 002 2h22a2 2 0 002-2V5a2 2 0 00-2-2H3zm21 2h-5v18h5a1 1 0 001-1V6a1 1 0 00-1-1zM11 5h6v18h-6V5zM9 5H3v18h6V5z" fill="#1A1A1A"/></svg><svg width="28" height="28" fill="none" viewBox="0 0 28 28" id="kitchen" x="28" y="77" xmlns="http://www.w3.org/2000/svg"><path d="M6 25v-3H4v3a1 1 0 102 0zM11 25v-3H9v3a1 1 0 102 0zM19 25v-3h-2v3a1 1 0 102 0zM24 25v-3h-2v3a1 1 0 102 0z" fill="#1A1A1A"/><path fill-rule="evenodd" clip-rule="evenodd" d="M4 14v8h20v-8H4zm-1-2a1 1 0 00-1 1v10a1 1 0 001 1h22a1 1 0 001-1V13a1 1 0 00-1-1H3z" fill="#1A1A1A"/><path fill-rule="evenodd" clip-rule="evenodd" d="M17 17a1 1 0 100 2h4a1 1 0 100-2h-4z" fill="#1A1A1A"/><path d="M7 16a1 1 0 011-1h2a1 1 0 110 2H8a1 1 0 01-1-1z" fill="#1A1A1A"/><path fill-rule="evenodd" clip-rule="evenodd" d="M18.4 3v1a3 3 0 01-.931 2.172L16.6 7h6.8l-.869-.828A3 3 0 0121.6 4V3h-3.2zm-1-2a1 1 0 00-1 1v2a1 1 0 01-.31.724L14.31 6.42a1 1 0 00-.31.724V8a1 1 0 001 1h10a1 1 0 001-1v-.857a1 1 0 00-.31-.724l-1.78-1.695A1 1 0 0123.6 4V2a1 1 0 00-1-1h-5.2z" fill="#1A1A1A"/><path d="M6 11a1 1 0 011-1h4a1 1 0 110 2H7a1 1 0 01-1-1z" fill="#1A1A1A"/></svg><svg width="85" height="20" fill="none" viewBox="0 0 85 20" id="logo_name" xmlns="http://www.w3.org/2000/svg"><g clip-path="url(#atclip0)" fill="#000"><path d="M12.818 19.13l-.887-2.925h-6.6l-.887 2.925H0L6.042.5h5.178l6.042 18.63h-4.444zm-6.27-6.92h4.162L8.631 5.37l-2.084 6.84zM38.587 5.825h3.806V19.13h-3.806v-1.25c-.887 1.09-2.155 1.62-3.781 1.62-1.674 0-3.095-.665-4.292-2.025-1.192-1.355-1.778-3.035-1.778-5.005 0-1.97.581-3.62 1.778-4.975 1.192-1.355 2.613-2.05 4.292-2.05 1.626 0 2.895.53 3.782 1.625V5.825zm-3.018 9.9c.887 0 1.626-.295 2.184-.88.558-.585.84-1.385.84-2.37 0-.985-.282-1.785-.84-2.37-.558-.585-1.292-.88-2.184-.88-.887 0-1.626.295-2.184.88-.558.585-.84 1.385-.84 2.37 0 .985.282 1.785.84 2.37.558.585 1.297.88 2.184.88zM55.487 6.915c.916.985 1.369 2.315 1.369 4.045v8.17H53.05v-7.585c0-1.57-.915-2.42-2.207-2.42-1.445 0-2.36.93-2.36 2.74v7.265h-3.806V5.825h3.805v1.25c.763-1.09 1.979-1.625 3.629-1.625 1.345 0 2.484.48 3.376 1.465zM65.067 19.5c-1.878 0-3.476-.665-4.773-2.025-1.292-1.355-1.955-3.035-1.955-5.005 0-1.97.658-3.62 1.955-4.975 1.292-1.355 2.895-2.05 4.773-2.05 1.88 0 3.477.69 4.774 2.05 1.292 1.355 1.955 3.005 1.955 4.975 0 1.97-.658 3.645-1.955 5.005-1.293 1.36-2.895 2.025-4.774 2.025zm0-3.885c.84 0 1.522-.29 2.08-.88.557-.585.839-1.33.839-2.26 0-.93-.282-1.675-.84-2.26-.558-.585-1.244-.88-2.079-.88-.834 0-1.52.29-2.079.88-.558.585-.839 1.33-.839 2.26 0 .93.281 1.675.84 2.26.557.59 1.244.88 2.078.88zM80.784 5.825H85L80.303 19.13h-4.316L71.29 5.825h4.216l2.641 8.435 2.637-8.435zM23.838 10.88c1.75.4 4.063 1.355 4.034 4.26 0 1.435-.505 2.53-1.52 3.275-1.016.715-2.256 1.085-3.754 1.085-2.665 0-4.072-.925-5.207-2.68l2.89-2.33c.53 1.14.977 1.54 2.15 1.54.916 0 1.536-.36 1.536-.92 0-.53-.992-.85-2.208-1.17-1.75-.505-4.034-1.41-4.034-4.125 0-1.385.481-2.45 1.421-3.22.963-.77 2.155-1.145 3.552-1.145 2.108 0 3.639 1.06 4.535 2.215l-2.794 2.43c-.405-.77-.806-1.225-1.721-1.255-.71-.02-1.088.36-1.088.865 0 .535.992.83 2.208 1.175z"/></g><defs><clipPath id="atclip0"><path fill="#fff" transform="translate(0 .5)" d="M0 0h85v19H0z"/></clipPath></defs></svg><svg width="28" height="28" fill="none" viewBox="0 0 28 28" id="logo_symbol" x="56" y="77" xmlns="http://www.w3.org/2000/svg"><path d="M28 12.804L26.323 7.67l-7.107-.39L16.657.5H11.32l-2.56 6.78-7.087.39L0 12.804l5.532 4.544-1.846 6.965L8 27.505l5.989-3.93 5.97 3.915 4.313-3.192-1.827-6.95L28 12.804zm-8.77 9.161l-5.228-3.133-5.232 3.133 1.325-6.008-4.559-4.07 6.048-.581 2.414-5.647 2.414 5.647 6.047.58-4.558 4.071 1.33 6.008z" fill="#EE2459"/></svg><svg width="24" height="24" fill="none" viewBox="0 0 24 24" id="menu" x="48" y="133" xmlns="http://www.w3.org/2000/svg"><path d="M3 7a1 1 0 011-1h16a1 1 0 110 2H4a1 1 0 01-1-1zm0 5a1 1 0 011-1h16a1 1 0 110 2H4a1 1 0 01-1-1zm0 5a1 1 0 011-1h16a1 1 0 110 2H4a1 1 0 01-1-1z" fill="#1A1A1A"/></svg><svg width="28" height="28" fill="none" viewBox="0 0 28 28" id="more" x="84" y="77" xmlns="http://www.w3.org/2000/svg"><path fill-rule="evenodd" clip-rule="evenodd" d="M19 9H9a5 5 0 000 10h10a5 5 0 000-10zM9 7a7 7 0 100 14h10a7 7 0 100-14H9z" fill="#1A1A1A"/><path d="M19.5 15.5a1.5 1.5 0 110-3 1.5 1.5 0 010 3zM14 15.5a1.5 1.5 0 110-3 1.5 1.5 0 010 3zM8.5 15.5a1.5 1.5 0 110-3 1.5 1.5 0 010 3z" fill="#1A1A1A"/></svg><svg width="24" height="24" fill="none" viewBox="0 0 24 24" id="new" x="72" y="133" xmlns="http://www.w3.org/2000/svg"><path d="M11.185 1.146a1 1 0 011.63 0l3.431 4.826a1 1 0 00.542.382l5.766 1.638a1 1 0 01.508 1.586l-3.634 4.552a1 1 0 00-.218.652l.165 5.776a1 1 0 01-1.324.974l-5.727-1.963a1 1 0 00-.648 0l-5.727 1.963a1 1 0 01-1.324-.974l.165-5.776a1 1 0 00-.219-.652L.938 9.578a1 1 0 01.508-1.586l5.766-1.638a1 1 0 00.542-.382l3.431-4.826z" fill="#EE2A74"/><rect x="9" y="9" width="6" height="6" rx="3" fill="#fff"/></svg><svg width="28" height="28" fill="none" viewBox="0 0 28 28" id="office" x="113" xmlns="http://www.w3.org/2000/svg"><path fill-rule="evenodd" clip-rule="evenodd" d="M14 17.667a1 1 0 011 1v7a1 1 0 01-2 0v-7a1 1 0 011-1z" fill="#1A1A1A"/><path fill-rule="evenodd" clip-rule="evenodd" d="M20.814 24.696a1 1 0 01-1.177.785l-4.264-.853a7.002 7.002 0 00-2.746 0l-4.264.853a1 1 0 01-.392-1.962l4.264-.852a9 9 0 013.53 0l4.264.852a1 1 0 01.785 1.177zM5.553 13.04a1 1 0 011.24.68l.693 2.375c.093.318.36.554.686.607 3.86.63 7.796.63 11.656 0a.859.859 0 00.686-.607l.693-2.375a1 1 0 011.92.56l-.693 2.375a2.859 2.859 0 01-2.284 2.02 38.172 38.172 0 01-12.3 0 2.859 2.859 0 01-2.284-2.02l-.693-2.375a1 1 0 01.68-1.24z" fill="#1A1A1A"/><path fill-rule="evenodd" clip-rule="evenodd" d="M18.826 3.167H9.174l.86 10.327c2.624.458 5.308.458 7.932 0l.86-10.327zm-9.652-2A2 2 0 007.18 3.333l.907 10.895A1.252 1.252 0 009.09 15.35c3.241.649 6.579.649 9.82 0 .547-.109.955-.567 1.002-1.123l.908-10.895a2 2 0 00-1.994-2.166H9.174zM21.167 14a1 1 0 011-1h1.166a1 1 0 110 2h-1.166a1 1 0 01-1-1zM3.667 14a1 1 0 011-1h1.166a1 1 0 110 2H4.667a1 1 0 01-1-1z" fill="#1A1A1A"/></svg><svg width="24" height="24" fill="none" viewBox="0 0 24 24" id="phone" x="96" y="133" xmlns="http://www.w3.org/2000/svg"><path fill-rule="evenodd" clip-rule="evenodd" d="M16.772 14.356l2.54.29c1.01.12 1.77.97 1.76 1.98l-.184 2.31c0 1.13-.94 2.07-2.07 2a16.913 16.913 0 01-6.206-1.598 17.054 17.054 0 01-8.561-9.186 16.915 16.915 0 01-1.123-5.106c-.07-1.13.87-2.07 2-2.07l2.501-.213c1.02 0 1.87.76 1.99 1.77l.29 2.52c.07.61-.14 1.21-.57 1.64l-2.621 2.063c1.44 2.84 3.76 5.15 6.59 6.59l2.024-2.42a1.99 1.99 0 011.64-.57zm-.219 1.988l2.512.287-.177 2.225v.08a14.93 14.93 0 01-3.858-.77l1.523-1.822zm-8.832-9.08L7.433 4.77l-2.42.206h-.085c.088 1.348.354 2.648.776 3.875L7.72 7.265z" fill="#1A1A1A"/></svg><svg viewBox="0 0 24 24" width="24" height="24" id="pin" x="120" y="133" xmlns="http://www.w3.org/2000/svg"><path d="M12 6.5c1.4 0 2.5 1.1 2.5 2.5s-1.1 2.5-2.5 2.5S9.5 10.4 9.5 9s1.1-2.5 2.5-2.5zM12 2c3.9 0 7 3.1 7 7 0 4.2-4.5 10-6.3 12.2-.4.5-1.1.5-1.4 0C9.5 19 5 13.2 5 9c0-3.9 3.1-7 7-7zm0 2C9.2 4 7 6.2 7 9c0 1 0 3 5 9.7C17 12 17 10 17 9c0-2.8-2.2-5-5-5z"/></svg><svg width="28" height="28" fill="none" viewBox="0 0 28 28" id="premium" x="113" y="28" xmlns="http://www.w3.org/2000/svg"><path d="M15.75 13.417a1.75 1.75 0 11-3.5 0 1.75 1.75 0 013.5 0z" fill="#1A1A1A"/><path fill-rule="evenodd" clip-rule="evenodd" d="M14 14.167a.75.75 0 100-1.5.75.75 0 000 1.5zm0 1a1.75 1.75 0 100-3.5 1.75 1.75 0 000 3.5z" fill="#1A1A1A"/><path fill-rule="evenodd" clip-rule="evenodd" d="M1.837 9.632a1 1 0 011.365.372l4.43 7.754c4.216.703 8.52.703 12.735 0l4.431-7.754a1 1 0 111.737.992l-4.433 7.757c-.297.52-.812.88-1.403.978-4.435.739-8.963.739-13.398 0a1.994 1.994 0 01-1.403-.978l-4.433-7.757a1 1 0 01.372-1.364zm18.529 8.129l.005.003-.005-.003zM14 2.5a1 1 0 011 1V7a1 1 0 11-2 0V3.5a1 1 0 011-1z" fill="#1A1A1A"/><path fill-rule="evenodd" clip-rule="evenodd" d="M21.118 4.898a1 1 0 01.584 1.288l-1.105 2.936a1 1 0 01-1.872-.704L19.83 5.48a1 1 0 011.288-.583zM6.88 4.897a1 1 0 011.288.584l1.105 2.937a1 1 0 01-1.872.704L6.296 6.185a1 1 0 01.584-1.288z" fill="#1A1A1A"/><path fill-rule="evenodd" clip-rule="evenodd" d="M12.987 5.623a1.132 1.132 0 012.026 0l.4.8a2.582 2.582 0 003.742.994 1.109 1.109 0 011.68.618L21 8.61a3.64 3.64 0 003.5 2.64v2a5.64 5.64 0 01-5.277-3.65A4.589 4.589 0 0114 7.942 4.589 4.589 0 018.777 9.6 5.64 5.64 0 013.5 13.25v-2A3.64 3.64 0 007 8.61l.164-.575a1.109 1.109 0 011.681-.618 2.582 2.582 0 003.742-.994l.4-.8zM21.028 23.498a.982.982 0 01-.824 1.14c-4.115.589-8.293.589-12.407 0a.982.982 0 01-.824-1.14l.055-.329a1.02 1.02 0 011.152-.834c3.861.548 7.78.548 11.64 0a1.02 1.02 0 011.153.834l.055.329z" fill="#1A1A1A"/></svg><svg viewBox="0 0 24 24" width="24" height="24" id="promo" x="165" xmlns="http://www.w3.org/2000/svg"><path d="M22.3 11c.3-.5.2-1.1-.3-1.5l-2-1.6c-.2-.2-.4-.4-.4-.7l-.4-2.6c-.1-.6-.6-1-1.1-1l-2.6.1c-.3 0-.6-.1-.8-.3l-1.9-1.8c-.4-.4-1.1-.4-1.5 0l-2 1.8c-.2.2-.5.3-.8.3l-2.6-.1c-.6 0-1.1.4-1.1 1l-.4 2.6c0 .3-.2.5-.4.7L1.9 9.5c-.4.3-.6 1-.3 1.5L3 13.2c.2.2.2.5.1.8l-.6 2.6c-.1.6.2 1.1.7 1.3l2.5.8c.3.1.5.3.6.5l1.2 2.3c.5.5 1.1.7 1.7.5l2.4-1c.3-.1.6-.1.8 0l2.4 1c.5.2 1.1 0 1.4-.5l1.2-2.3c.1-.3.4-.4.6-.5l2.5-.8c.5-.2.9-.7.7-1.3l-.4-2.6c-.1-.3 0-.6.1-.8l1.4-2.2zM11 7c0-.6.4-1 1-1s1 .4 1 1v4c0 .6-.4 1-1 1s-1-.4-1-1V7zm1 10c-.8 0-1.5-.7-1.5-1.5S11.2 14 12 14s1.5.7 1.5 1.5S12.8 17 12 17z"/></svg><svg width="28" height="28" fill="none" viewBox="0 0 28 28" id="room" x="113" y="56" xmlns="http://www.w3.org/2000/svg"><path fill-rule="evenodd" clip-rule="evenodd" d="M11 6H4v17h7V6zM4 4a2 2 0 00-2 2v17a2 2 0 002 2h7a2 2 0 002-2V6a2 2 0 00-2-2H4z" fill="#1A1A1A"/><path d="M11 13h-1a1 1 0 00-1 1v3a1 1 0 001 1h1v-5zM16 22a1 1 0 112 0v2a1 1 0 11-2 0v-2zM23 22a1 1 0 112 0v2a1 1 0 11-2 0v-2z" fill="#1A1A1A"/><path fill-rule="evenodd" clip-rule="evenodd" d="M17 18v3h7v-3h-7zm-1-2a1 1 0 00-1 1v5a1 1 0 001 1h9a1 1 0 001-1v-5a1 1 0 00-1-1h-9z" fill="#1A1A1A"/><path d="M15 10a1 1 0 011-1h6a1 1 0 110 2h-6a1 1 0 01-1-1zM18 6a1 1 0 011-1h6a1 1 0 110 2h-6a1 1 0 01-1-1z" fill="#1A1A1A"/></svg><svg width="28" height="28" fill="none" viewBox="0 0 28 28" id="rotang" y="105" xmlns="http://www.w3.org/2000/svg"><path fill-rule="evenodd" clip-rule="evenodd" d="M11.885 24.665a29.026 29.026 0 003.87-.204c1.095-.138 1.964-.332 2.55-.544l-.026-.01c-.657-.234-1.64-.44-2.86-.574a29.942 29.942 0 00-3.915-.158c-1.35.032-2.622.15-3.673.334-1.08.19-1.79.427-2.137.633a1 1 0 11-1.02-1.72c.667-.396 1.67-.682 2.81-.883 1.17-.205 2.545-.33 3.973-.363 1.429-.034 2.875.024 4.182.169 1.297.143 2.45.371 3.311.678.427.152.825.338 1.141.574.298.221.67.6.733 1.162.069.604-.253 1.057-.55 1.328-.296.269-.682.472-1.082.632-.81.324-1.924.567-3.187.726a30.99 30.99 0 01-4.143.22 1 1 0 11.023-2z" fill="#1A1A1A"/><path fill-rule="evenodd" clip-rule="evenodd" d="M10.677 1.024a1 1 0 011.132-.847c2.005.289 3.707.929 5.188 2.047 1.473 1.113 2.667 2.652 3.732 4.649.745 1.397 1.084 3.167 1.208 4.952.125 1.802.038 3.708-.129 5.434a54.302 54.302 0 01-.97 6.166l-.023.1-.006.026-.002.01-.974-.228.974.229a1 1 0 01-1.947-.457l.001-.006.005-.021.02-.089a48.073 48.073 0 00.33-1.65c.201-1.099.441-2.613.602-4.272.16-1.663.239-3.45.124-5.103-.117-1.669-.425-3.114-.978-4.15-.976-1.83-2-3.109-3.172-3.994-1.164-.878-2.532-1.413-4.268-1.664a1 1 0 01-.847-1.132z" fill="#1A1A1A"/><path fill-rule="evenodd" clip-rule="evenodd" d="M11.667.167a1 1 0 011 1v4.666a1 1 0 11-2 0V1.167a1 1 0 011-1z" fill="#1A1A1A"/><path d="M11.083 3.5l1.351.624c3.9 1.71 3.247 8.256 2.02 11.694A5.833 5.833 0 017 19.351L3.5 18.083 11.083 3.5z" fill="#fff"/><path fill-rule="evenodd" clip-rule="evenodd" d="M12.434 4.124l-1.35-.624L3.5 18.083 7 19.351a5.833 5.833 0 007.454-3.533c1.227-3.438 1.88-9.985-2.02-11.694zM6.328 16.981l1.348.488a3.833 3.833 0 004.894-2.323c.538-1.506.949-3.72.802-5.674-.133-1.772-.661-2.826-1.407-3.332L6.328 16.98z" fill="#1A1A1A"/><path d="M11.083 3.5c3.5 0-1.942 16.698-7.584 14.583C-2.142 15.968 7.301 3.5 11.083 3.5z" fill="#fff"/><path fill-rule="evenodd" clip-rule="evenodd" d="M3.836 15.948c.026.051.082.156.366.263.3.113.89.137 1.93-.917 1.001-1.017 1.98-2.65 2.74-4.478.759-1.821 1.213-3.625 1.3-4.878v-.006c-.39.25-.837.595-1.321 1.032-1.185 1.071-2.427 2.553-3.401 4.1-.998 1.585-1.583 3.034-1.688 4.053-.05.49.025.734.074.831zM11.083 3.5c3.5 0-1.942 16.698-7.584 14.583C-2.142 15.968 7.301 3.5 11.083 3.5z" fill="#1A1A1A"/></svg><svg width="24" height="24" fill="none" viewBox="0 0 24 24" id="sale" x="165" y="24" xmlns="http://www.w3.org/2000/svg"><path d="M1.414 14.913a2 2 0 010-2.828l9.117-9.117a2 2 0 011.596-.578l6.879.625a2 2 0 011.81 1.811l.626 6.88a2 2 0 01-.578 1.594l-9.117 9.118a2 2 0 01-2.828 0l-7.505-7.505z" fill="#fff"/><path d="M14.192 8.394a.9.9 0 011.273 1.273l-5.799 5.798a.9.9 0 11-1.272-1.273l5.798-5.798zM16 14.5a1.5 1.5 0 11-3 0 1.5 1.5 0 013 0zM11 9.5a1.5 1.5 0 11-3 0 1.5 1.5 0 013 0z" fill="#fff"/></svg><svg width="24" height="24" fill="none" viewBox="0 0 24 24" id="search" x="165" y="48" xmlns="http://www.w3.org/2000/svg"><path fill-rule="evenodd" clip-rule="evenodd" d="M10.5 17a6.5 6.5 0 100-13 6.5 6.5 0 000 13zm0 2a8.5 8.5 0 100-17 8.5 8.5 0 000 17zM17.707 17.293a1 1 0 011.414 0l2.586 2.586a1 1 0 01-1.414 1.414l-2.586-2.586a1 1 0 010-1.414z" fill="#fff"/></svg><svg width="16" height="16" fill="none" viewBox="0 0 16 16" id="small_car" x="165" y="96" xmlns="http://www.w3.org/2000/svg"><path d="M0 3a1 1 0 011-1h7a1 1 0 011 1v10H1a1 1 0 01-1-1V3zM9 4h2.55a1 1 0 01.748.336l2.45 2.755a1 1 0 01.252.664V12a1 1 0 01-1 1H9V4z" fill="#27AE60"/><circle cx="3.5" cy="12.96" r="1.8" fill="#fff" stroke="#27AE60" stroke-width="1.4"/><circle cx="11.883" cy="12.96" r="1.8" fill="#fff" stroke="#27AE60" stroke-width="1.4"/><path d="M10 6h1l2 2v1h-3V6z" fill="#fff"/><path d="M14 11h1a1 1 0 110 2h-1v-2z" fill="#27AE60"/></svg><svg width="28" height="28" fill="none" viewBox="0 0 28 28" id="sofa" x="28" y="105" xmlns="http://www.w3.org/2000/svg"><path d="M6 21a1 1 0 112 0v2a1 1 0 11-2 0v-2zM20 21a1 1 0 112 0v2a1 1 0 11-2 0v-2z" fill="#1A1A1A"/><path fill-rule="evenodd" clip-rule="evenodd" d="M7 17v-2.5a1.5 1.5 0 00-3 0V20h20v-5.5a1.5 1.5 0 00-3 0V17H7zm2-2v-.5a3.5 3.5 0 10-7 0V21a1 1 0 001 1h22a1 1 0 001-1v-6.5a3.5 3.5 0 10-7 0v.5H9z" fill="#1A1A1A"/><path fill-rule="evenodd" clip-rule="evenodd" d="M4 7a2 2 0 012-2h16a2 2 0 012 2v5h-2V7H6v5H4V7z" fill="#1A1A1A"/></svg><svg width="24" height="24" fill="none" viewBox="0 0 24 24" id="sort" x="165" y="72" xmlns="http://www.w3.org/2000/svg"><path fill-rule="evenodd" clip-rule="evenodd" d="M16.657 14.952a1 1 0 010 1.414L12 21.023l-4.657-4.657a1 1 0 111.414-1.414L12 18.195l3.242-3.243a1 1 0 011.415 0zM16.657 9.05a1 1 0 000-1.413L12 2.98 7.343 7.637A1 1 0 108.757 9.05L12 5.808l3.242 3.243a1 1 0 001.415 0z" fill="#1A1A1A"/></svg><svg width="28" height="28" fill="none" viewBox="0 0 28 28" id="table" x="56" y="105" xmlns="http://www.w3.org/2000/svg"><path d="M1 8a1 1 0 011-1h24a1 1 0 110 2H2a1 1 0 01-1-1zM8 6a1 1 0 011-1h5a1 1 0 110 2H9a1 1 0 01-1-1z" fill="#1A1A1A"/><path fill-rule="evenodd" clip-rule="evenodd" d="M4.38 11h19.24l2.36 11.804a1 1 0 01-1.96.392L21.98 13H6.02L3.98 23.196a1 1 0 11-1.96-.392L4.38 11z" fill="#1A1A1A"/><path d="M5 15h19v2H5v-2z" fill="#1A1A1A"/></svg></svg>