<?xml version="1.0" encoding="UTF-8"?>
<svg enable-background="new 0 0 28 29" version="1.1" viewBox="0 0 28 29" xml:space="preserve" xmlns="http://www.w3.org/2000/svg">
<style type="text/css">
	.st0{fill:#1A1A1A;}
	.st1{fill:#EE2A74;}
</style>
<path class="st0" d="m11.2 9.9h-4.9l-0.8-3.2c-0.2-0.4-0.5-0.7-1-0.7h-3.5c-0.6 0-1 0.4-1 1s0.4 1 1 1h2.7l0.8 3.1 1.7 7.5c0.4 1.4 1.6 2.4 3 2.4h9c1.4 0 2.6-0.9 2.9-2.3l0.4-1.8c-0.4 0.1-1 0.1-1.5 0.1h-0.5l-0.3 1.3c-0.1 0.4-0.5 0.8-1 0.8h-9c-0.5 0-0.9-0.3-1-0.8l-1.4-6.3h5.1c-0.3-0.7-0.5-1.4-0.7-2.1zm10.6 5.9 1.1-4.7c0.1-0.3 0-0.6-0.2-0.9-0.1-0.2-0.4-0.3-0.7-0.3h-9.8c0.2 0.7 0.4 1.4 0.8 2h7.7l-1 4.1h0.3c0.6 0 1.3-0.1 1.8-0.2z"/>
<path class="st1" d="m28 8.2c0 4.4-3.6 8-8 8s-8-3.6-8-8 3.6-8 8-8 8 3.6 8 8z"/>
<path class="st0" d="M10,26.5c0,0.8-0.7,1.5-1.5,1.5S7,27.3,7,26.5S7.7,25,8.5,25S10,25.7,10,26.5z"/>
<path class="st0" d="M20,26.5c0,0.8-0.7,1.5-1.5,1.5S17,27.3,17,26.5s0.7-1.5,1.5-1.5S20,25.7,20,26.5z"/>
<path class="st0" d="M8.6,19.2c0.5,0.3,0.6,0.9,0.3,1.4l-1,1.4H20c0.6,0,1,0.4,1,1s-0.4,1-1,1H7.9c-1.6,0-2.6-1.8-1.7-3.1l1-1.4  C7.5,19,8.1,18.9,8.6,19.2z"/>
</svg>
