<?xml version="1.0" encoding="UTF-8"?>
<svg enable-background="new 0 0 7 13" version="1.1" viewBox="0 0 7 13" xml:space="preserve" xmlns="http://www.w3.org/2000/svg">
<path class="st0" d="M3.5,12.7l3.2-2.3c0.1-0.1,0.2-0.1,0.3-0.1V0C6.8,0,6.6,0.1,6.5,0.4L5.2,4.1C5.2,4.3,5,4.4,4.8,4.4L0.8,4.5  c-0.5,0-0.7,0.6-0.3,0.9l3.1,2.4c0.2,0.1,0.2,0.3,0.2,0.5l-1.1,3.8C2.6,12.5,3.1,12.9,3.5,12.7z"/>
<path d="M3.5,12.7l3.2-2.3c0.1-0.1,0.2-0.1,0.3-0.1V0C6.8,0,6.6,0.1,6.5,0.4L5.2,4.1C5.2,4.3,5,4.4,4.8,4.4L0.8,4.5  c-0.5,0-0.7,0.6-0.3,0.9l3.1,2.4c0.2,0.1,0.2,0.3,0.2,0.5l-1.1,3.8C2.6,12.5,3.1,12.9,3.5,12.7z"/>
</svg>
