<?xml version="1.0" encoding="UTF-8"?>
<svg enable-background="new 0 0 52.5 17" version="1.1" viewBox="0 0 52.5 17" xml:space="preserve" xmlns="http://www.w3.org/2000/svg">
<style type="text/css">
	.st0{fill:#00579F;}
	.st1{fill:#FAA61A;}
</style>
<g transform="matrix(4.43 0 0 4.43 -81.166 -105.05)">
	<polygon class="st0" points="23.5 27.5 22.5 27.5 23.1 23.8 24.1 23.8"/>
	<path class="st0" d="m26.9 23.9c-0.2-0.1-0.5-0.2-0.9-0.2-0.9 0-1.6 0.5-1.6 1.2 0 0.5 0.5 0.8 0.8 1 0.4 0.2 0.5 0.3 0.5 0.5s-0.3 0.4-0.6 0.4c-0.4 0-0.6-0.1-0.9-0.2l-0.1-0.1-0.1 0.8c0.2 0.1 0.6 0.2 1.1 0.2 1 0 1.7-0.5 1.7-1.3 0-0.4-0.3-0.7-0.8-1-0.3-0.2-0.5-0.3-0.5-0.5s0.2-0.3 0.6-0.3c0.3 0 0.5 0.1 0.7 0.1h0.1c-0.1 0.2 0-0.6 0-0.6z"/>
	<path class="st0" d="m28.2 26.2c0.1-0.2 0.4-1 0.4-1s0.1-0.2 0.1-0.4l0.1 0.3s0.2 0.9 0.2 1.1h-0.8zm1.2-2.4h-0.7c-0.2 0-0.4 0.1-0.5 0.3l-1.4 3.4h1s0.2-0.5 0.2-0.6h1.2c0 0.1 0.1 0.6 0.1 0.6h0.9l-0.8-3.7z"/>
	<path class="st0" d="m21.7 23.8-0.9 2.5-0.1-0.5c-0.2-0.6-0.7-1.2-1.3-1.6l0.9 3.2h1l1.5-3.7c-0.1 0.1-1.1 0.1-1.1 0.1z"/>
	<path class="st1" d="m19.9 23.8h-1.5v0.1c1.2 0.3 2 1.1 2.3 1.9l-0.3-1.7c-0.1-0.2-0.3-0.3-0.5-0.3z"/>
</g>
</svg>
