<?xml version="1.0" encoding="UTF-8"?>
<svg enable-background="new 0 0 24 24" version="1.1" viewBox="0 0 24 24" xml:space="preserve" xmlns="http://www.w3.org/2000/svg">
<path d="m22.3 11c0.3-0.5 0.2-1.1-0.3-1.5l-2-1.6c-0.2-0.2-0.4-0.4-0.4-0.7l-0.4-2.6c-0.1-0.6-0.6-1-1.1-1l-2.6 0.1c-0.3 0-0.6-0.1-0.8-0.3l-1.9-1.8c-0.4-0.4-1.1-0.4-1.5 0l-2 1.8c-0.2 0.2-0.5 0.3-0.8 0.3l-2.6-0.1c-0.6 0-1.1 0.4-1.1 1l-0.4 2.6c0 0.3-0.2 0.5-0.4 0.7l-2.1 1.6c-0.4 0.3-0.6 1-0.3 1.5l1.4 2.2c0.2 0.2 0.2 0.5 0.1 0.8l-0.6 2.6c-0.1 0.6 0.2 1.1 0.7 1.3l2.5 0.8c0.3 0.1 0.5 0.3 0.6 0.5l1.2 2.3c0.5 0.5 1.1 0.7 1.7 0.5l2.4-1c0.3-0.1 0.6-0.1 0.8 0l2.4 1c0.5 0.2 1.1 0 1.4-0.5l1.2-2.3c0.1-0.3 0.4-0.4 0.6-0.5l2.5-0.8c0.5-0.2 0.9-0.7 0.7-1.3l-0.4-2.6c-0.1-0.3 0-0.6 0.1-0.8l1.4-2.2zm-11.3-4c0-0.6 0.4-1 1-1s1 0.4 1 1v4c0 0.6-0.4 1-1 1s-1-0.4-1-1v-4zm1 10c-0.8 0-1.5-0.7-1.5-1.5s0.7-1.5 1.5-1.5 1.5 0.7 1.5 1.5-0.7 1.5-1.5 1.5z"/>
</svg>

