<?xml version="1.0" encoding="UTF-8"?>
<svg enable-background="new 0 0 14 13" version="1.1" viewBox="0 0 14 13" xml:space="preserve" xmlns="http://www.w3.org/2000/svg">
<path d="m6.5 0.4c0.2-0.4 0.8-0.4 0.9 0l1.3 3.7c0.1 0.2 0.3 0.3 0.5 0.3l3.9 0.1c0.5 0 0.7 0.6 0.3 0.9l-3.1 2.4c-0.2 0.1-0.2 0.3-0.2 0.5l1.1 3.8c0.1 0.5-0.4 0.8-0.8 0.6l-3.2-2.3c-0.2-0.1-0.4-0.1-0.6 0l-3.2 2.3c-0.4 0.3-0.9-0.1-0.8-0.6l1.1-3.8c0.1-0.2 0-0.4-0.2-0.5l-3-2.4c-0.3-0.3-0.1-0.9 0.3-0.9l3.9-0.1c0.2 0 0.4-0.1 0.5-0.3l1.3-3.7z"/>
</svg>
